<svg id="Layer_1" data-name="Layer 1" xmlns="http://www.w3.org/2000/svg" viewBox="0 0 175.5 292.98"><defs><style>.cls-1{fill:#82bc00;}</style></defs><title>Flecha redondeado</title><path class="cls-1" d="M198.53,294.51v8a5.16,5.16,0,0,1,3.74,1.62l.21.21.22.19L348,429.84a16.08,16.08,0,0,1,0,22.33L202.71,577.47l-.22.19-.21.21a5.16,5.16,0,0,1-3.75,1.62A5.46,5.46,0,0,1,193,574V308a5.46,5.46,0,0,1,5.53-5.46v-8m0,0A13.43,13.43,0,0,0,185,308V574a13.42,13.42,0,0,0,13.53,13.46,13.16,13.16,0,0,0,9.4-4L353.45,458a24.06,24.06,0,0,0,0-34L207.93,298.47a13.15,13.15,0,0,0-9.4-4Z" transform="translate(-185 -294.51)"/></svg>